<?xml version="1.0" encoding="UTF-8" standalone="no"?>
<!-- Created with Inkscape (http://www.inkscape.org/) -->

<svg
   version="1.1"
   id="svg1"
   width="300"
   height="300"
   viewBox="0 0 300 300"
   xmlns="http://www.w3.org/2000/svg"
   xmlns:svg="http://www.w3.org/2000/svg">
  <defs
     id="defs1" />
  <g
     id="g1">
    <path
       style="fill:#1181ce;fill-opacity:1"
       d="M 27.398437,119.32422 V 47.960937 H 53.6875 v -14.070312 -0.06641 -0.05469 H 93.956813 V 47.96875 h 17.172097 v 55.3959 L 85.335937,126.99609 V 73.375 H 53.660156 v 61.11719 z"
       id="path181475" />
  </g>
  <g
     id="layer1">
    <path
       style="fill:#f45718;fill-opacity:1"
       d="M 212.13203,266.40248 H 174.12504 L 120.6059,212.88333 V 193.3937 l 9.52384,-9.52384 82.5492,82.54919 z"
       id="path181466" />
  </g>
  <g
     id="layer2">
    <path
       style="fill:#f45718;fill-opacity:1"
       d="m 200.75203,188.53235 -36.54062,-36.54063 19.26515,-19.26516 17.81335,17.81335 45.04841,-45.04842 V 75.306872 L 272.9476,48.697599 v 68.458651 l -71.80193,71.80192 z"
       id="path181467" />
  </g>
  <g
     id="layer3">
    <path
       style="fill:#f98426;fill-opacity:1"
       d="M 246.33594,75.300781 H 146.21875 V 86.819454 L 120.34074,110.44124 V 47.961727 h 16.98738 V 33.764349 h 42.80733 V 47.928581 H 206.4375 V 33.8125 h 42.55247 v 13.895111 0.417389 0.3125 0.210937 0.05859 h 23.95325 z"
       id="path181468" />
  </g>
  <g
     id="layer4">
    <path
       style="fill:#0b66b2;fill-opacity:1"
       d="m 272.94322,266.37486 v -83.87502 l -26.43247,-26.43247 -19.58907,19.58907 20.39844,20.39844 v 43.87529 H 239.665 L 151.24242,151.50758 224.5506,82.952464 H 186.85297 L 27.40625,230.21875 v 36.17187 l 103.27592,-94.69625 94.68478,94.68477 z"
       id="path181469" />
  </g>
  <g
     id="layer5">
    <path
       style="fill:#2593e1;fill-opacity:1"
       d="M 186.86328,82.945312 27.398437,230.23047 V 196 L 149.77405,83.615377 l 0.59663,-0.596622 z"
       id="path181470" />
  </g>
  <g
     id="layer6">
    <path
       style="fill:#08488b;fill-opacity:1"
       d="m 27.410156,266.38672 h 83.721614 v -60.98047 l -25.791926,23.62891 v 11.99986 h -30.28125 z"
       id="path181473" />
    <path
       style="fill:#083f79;fill-opacity:1"
       d="m 85.339844,229.04687 v -15.78515 l 25.789066,-23.64844 v 15.82031 z"
       id="path181476" />
    <path
       style="fill:#085da9;fill-opacity:1"
       d="m 27.398437,195.99609 v -76.67182 l 26.238182,15.14862 v 37.43727 z"
       id="path181474" />
    <path
       style="fill:#083f79;fill-opacity:1"
       d="m 111.12891,103.35547 -25.792973,23.62109 v 15.82813 L 111.125,119.11719 Z"
       id="path181477" />
  </g>
</svg>
